<svg height="480pt" viewBox="-40 0 480 480" width="480pt" xmlns="http://www.w3.org/2000/svg"><path d="m40 480h320c22.082031-.027344 39.972656-17.917969 40-40v-400c-.027344-22.082031-17.917969-39.9726562-40-40h-320c-22.082031.0273438-39.9726562 17.917969-40 40v400c.0273438 22.082031 17.917969 39.972656 40 40zm264-420.6875 36.6875 36.6875h-36.6875zm-192-43.3125h176v16h-176zm128.007812 64h-80.007812v-32h80zm-96.007812-32v32c.011719 8.832031 7.167969 15.988281 16 16h80c8.832031-.011719 15.988281-7.167969 16-16v-32h32v56c0 4.417969 3.582031 8 8 8h56v320h-304v-384zm-128-8c.015625-13.25 10.75-23.984375 24-24h56v16h-64v416h336v-347.3125l-64-64v-20.6875h56c13.25.015625 23.984375 10.75 24 24v400c-.015625 13.25-10.75 23.984375-24 24h-320c-13.25-.015625-23.984375-10.75-24-24zm0 0"/><path d="m176 224h48v-32h32v-48h-32v-32h-48v32h-32v48h32zm-16-48v-16h32v-32h16v32h32v16h-32v32h-16v-32zm0 0"/><path d="m64 240h32v16h-32zm0 0"/><path d="m112 240h224v16h-224zm0 0"/><path d="m64 272h32v16h-32zm0 0"/><path d="m112 272h224v16h-224zm0 0"/><path d="m64 304h32v16h-32zm0 0"/><path d="m112 304h224v16h-224zm0 0"/><path d="m64 336h272v16h-272zm0 0"/><path d="m64 368h272v16h-272zm0 0"/><path d="m272 400h64v16h-64zm0 0"/></svg>